<svg xmlns="http://www.w3.org/2000/svg" viewBox="0 0 1600 1200" width="1600" height="1200" role="img" aria-labelledby="title desc">
  <title id="title">Timber Joinery Study</title>
  <desc id="desc">An exploded joinery diagram drawn as a timber connection study.</desc>
  <rect width="1600" height="1200" fill="#f5f0e8"/>
  <g fill="none" stroke="#d5cfc6" stroke-width="1">
    <path d="M200 250h1200M200 450h1200M200 650h1200M200 850h1200"/>
    <path d="M340 120v960M620 120v960M900 120v960M1180 120v960"/>
  </g>
  <g fill="#ece5d8" stroke="#2c2a26" stroke-width="8">
    <rect x="350" y="470" width="290" height="150"/>
    <rect x="690" y="395" width="260" height="150"/>
    <rect x="980" y="470" width="270" height="150"/>
  </g>
  <g fill="#f5f0e8" stroke="#b5553d" stroke-width="6">
    <path d="M640 515h80v60h-80z"/>
    <path d="M950 515h80v60h-80z"/>
  </g>
  <g fill="none" stroke="#5a5650" stroke-width="3" stroke-dasharray="12 10">
    <path d="M640 545h45"/>
    <path d="M1030 545h45"/>
    <path d="M575 390l95 80"/>
    <path d="M1010 390l-95 80"/>
  </g>
  <g fill="#b5553d" font-family="'Courier Prime', monospace" font-size="42" letter-spacing="8">
    <text x="220" y="150">DETAIL STUDY / TIMBER JOINERY</text>
  </g>
  <g fill="#5a5650" font-family="'Josefin Sans', sans-serif" font-size="28" letter-spacing="6">
    <text x="220" y="1030">INTERLOCK / LOAD PATH / GRAIN DIRECTION / NO METAL FASTENERS</text>
  </g>
</svg>
