<svg xmlns="http://www.w3.org/2000/svg"
     viewBox="0 0 500 500"
     width="500" height="500"
     role="img"
     aria-label="Fallingwater">
  <title>Fallingwater</title>
  <style>
    .fw { fill: #1e1d1b; }
    @media (prefers-color-scheme: dark) {
      .fw { fill: #e8e3d8; }
    }
  </style>
  <g class="fw" transform="translate(0,500) scale(0.1,-0.1)" stroke="none">
    <path d="M1390 3915 l0 -145 -95 0 c-78 0 -95 3 -95 15 0 13 -28 15 -190 15
l-190 0 0 -560 0 -560 -312 -2 -313 -3 -3 -142 -3 -143 598 -2 598 -3 3 -107
3 -108 924 0 924 0 3 -507 3 -508 24 -48 c30 -60 108 -131 168 -151 145 -49
309 27 362 169 20 52 21 77 21 350 l0 294 36 -24 c82 -55 171 -57 243 -5 74
54 75 61 81 370 l5 275 203 3 202 2 0 145 0 145 -245 0 -245 0 0 145 0 145
355 0 355 0 0 145 0 145 -155 0 -155 0 0 70 0 70 -547 2 -548 3 -3 73 -3 72
-244 0 -245 0 0 25 c0 23 3 25 50 25 l50 0 0 85 0 85 -625 0 -625 0 0 145 0
145 -185 0 -185 0 0 -145z m1580 -230 l0 -45 -885 0 -885 0 0 45 0 45 885 0
885 0 0 -45z m-100 -110 l0 -25 -590 0 -590 0 0 25 0 25 590 0 590 0 0 -25z
m-1490 -150 l0 -165 -90 0 -90 0 0 165 0 165 90 0 90 0 0 -165z m1980 45 l0
-40 -905 0 -905 0 0 33 c0 19 3 37 7 40 3 4 411 7 905 7 l898 0 0 -40z m0
-150 l0 -60 -855 0 -855 0 0 60 0 60 855 0 855 0 0 -60z m1100 -10 l0 -50
-527 2 -528 3 -3 48 -3 47 530 0 531 0 0 -50z m308 -197 l3 -103 -1821 0
-1820 0 0 105 0 105 1818 -2 1817 -3 3 -102z m-3198 -288 l0 -145 -185 0 -185
0 0 145 0 145 185 0 185 0 0 -145z m410 0 l0 -145 -180 0 -180 0 0 145 0 145
180 0 180 0 0 -145z m400 0 l0 -145 -180 0 -180 0 0 145 0 145 180 0 180 0 0
-145z m410 0 l0 -145 -185 0 -185 0 0 145 0 145 185 0 185 0 0 -145z m400 0
l0 -145 -180 0 -180 0 0 145 0 145 180 0 180 0 0 -145z m410 0 l0 -145 -185 0
-185 0 0 145 0 145 185 0 185 0 0 -145z m460 0 l0 -145 -210 0 -210 0 0 145 0
145 210 0 210 0 0 -145z m490 -295 l0 -100 -2160 0 -2160 0 0 100 0 100 2160
0 2160 0 0 -100z m-772 -267 c2 -115 4 -123 22 -123 19 0 20 7 20 125 l0 125
160 0 160 0 0 -262 c0 -230 -2 -267 -18 -298 -20 -41 -70 -77 -119 -86 -74
-14 -164 50 -180 129 -4 18 -12 27 -24 27 -18 0 -19 -14 -19 -348 0 -403 -3
-426 -74 -497 -122 -121 -315 -88 -399 69 -22 41 -22 46 -25 564 l-3 522 -759
0 -760 0 0 83 c0 46 3 87 7 90 3 4 457 6 1007 5 l1001 -3 3 -122z"/>
    <path d="M3935 1600 c-72 -29 -105 -130 -67 -200 68 -124 265 -78 265 62 0 55
-25 103 -66 128 -33 21 -96 25 -132 10z m132 -65 c54 -62 9 -165 -72 -165 -47
0 -71 13 -90 50 -24 47 -19 78 20 117 32 32 39 35 78 30 28 -4 49 -14 64 -32z"/>
  </g>
</svg>